<svg width="620" height="180" viewBox="0 0 620 180" fill="none" xmlns="http://www.w3.org/2000/svg">
  <defs>
    <linearGradient id="shieldBlue" x1="0" y1="0" x2="1" y2="1">
      <stop offset="0" stop-color="#0C2E63"/>
      <stop offset="1" stop-color="#133F80"/>
    </linearGradient>
    <linearGradient id="wordmarkBlue" x1="0" y1="0" x2="0" y2="1">
      <stop offset="0" stop-color="#194382"/>
      <stop offset="1" stop-color="#0D2F60"/>
    </linearGradient>
  </defs>

  <g transform="translate(8,8)">
    <path d="M48 0H104L116 12V105L76 156L36 105V12L48 0Z" fill="url(#shieldBlue)" stroke="#D9DEE8" stroke-width="4"/>
    <path d="M48 22H104V45L76 60L48 45V22Z" fill="#0A1F45"/>
    <path d="M76 58L46 43L38 59L58 74L76 66L94 74L114 59L106 43L76 58Z" fill="#F9C33A"/>
    <path d="M58 74L76 66L94 74V106H58V74Z" fill="#FDFDFD" stroke="#D93A3A" stroke-width="2"/>
    <path d="M76 66V106" stroke="#D93A3A" stroke-width="2"/>
    <path d="M58 86H94" stroke="#D93A3A" stroke-width="2"/>
    <circle cx="54" cy="24" r="6" fill="#F9C33A"/>
    <circle cx="98" cy="24" r="6" fill="#F9C33A"/>
    <path d="M35 112H117L108 126H44L35 112Z" fill="#E8BA3D"/>
    <text x="76" y="123" text-anchor="middle" font-family="Georgia, serif" font-size="10" fill="#0A1F45">RECTE SAPERE FONS</text>
  </g>

  <text x="148" y="70" font-family="Outfit, Arial, sans-serif" font-size="58" font-weight="900" letter-spacing="1" fill="#A59A31">UNIVERSITY OF</text>
  <text x="148" y="150" font-family="Outfit, Arial, sans-serif" font-size="90" font-weight="900" letter-spacing="1" fill="url(#wordmarkBlue)">IBADAN</text>
</svg>